<svg width="25" height="26" viewBox="0 0 25 26" fill="none" xmlns="http://www.w3.org/2000/svg">
<path d="M12.2051 2.30469H2.24342C1.91364 2.30469 1.59737 2.43397 1.36419 2.66408C1.131 2.8942 1 3.20631 1 3.53174V23.7782C1 24.1036 1.131 24.4157 1.36419 24.6458C1.59737 24.8759 1.91364 25.0052 2.24342 25.0052H22.7598C23.0896 25.0052 23.4059 24.8759 23.639 24.6458C23.8722 24.4157 24.0032 24.1036 24.0032 23.7782V3.53174C24.0032 3.20631 23.8722 2.8942 23.639 2.66408C23.4059 2.43397 23.0896 2.30469 22.7598 2.30469H19.6836" stroke="white" stroke-width="1.5" stroke-linecap="round" stroke-linejoin="round"/>
<path d="M19.2098 14.308L24.0032 13.5792M1 17.0775L13.3223 15.2032M8.71416 15.9044L6.38897 2.30866M15.9446 1C15.1646 1 14.3921 1.15164 13.6714 1.44625C12.9507 1.74086 12.2959 2.17268 11.7443 2.71705C11.1928 3.26142 10.7553 3.90768 10.4568 4.61892C10.1583 5.33016 10.0047 6.09245 10.0048 6.86226C10.0048 11.4496 14.5514 16.9793 15.7289 18.334C15.7628 18.3731 15.8048 18.4045 15.8522 18.426C15.8996 18.4474 15.9512 18.4584 16.0033 18.4581C16.0555 18.4579 16.1069 18.4465 16.1541 18.4246C16.2013 18.4027 16.2431 18.371 16.2766 18.3316C17.4342 16.972 21.8844 11.4465 21.8844 6.86226C21.8845 6.09245 21.7309 5.33016 21.4325 4.61892C21.134 3.90768 20.6965 3.26142 20.1449 2.71705C19.5934 2.17268 18.9385 1.74086 18.2178 1.44625C17.4972 1.15164 16.7247 1 15.9446 1ZM15.9446 9.05256C15.5057 9.05256 15.0765 8.9241 14.7115 8.68342C14.3466 8.44275 14.0621 8.10067 13.8941 7.70045C13.7261 7.30023 13.6821 6.85983 13.7678 6.43496C13.8534 6.01008 14.0648 5.61981 14.3752 5.31349C14.6856 5.00717 15.0811 4.79856 15.5116 4.71405C15.9422 4.62954 16.3884 4.67291 16.794 4.83869C17.1996 5.00447 17.5462 5.28521 17.7901 5.6454C18.034 6.00559 18.1641 6.42906 18.1641 6.86226C18.1641 7.14989 18.1067 7.43471 17.9952 7.70045C17.8836 7.96619 17.7202 8.20765 17.5141 8.41103C17.308 8.61442 17.0633 8.77576 16.794 8.88583C16.5247 8.9959 16.2361 9.05256 15.9446 9.05256Z" stroke="white" stroke-width="1.5" stroke-linecap="round" stroke-linejoin="round"/>
</svg>
