<svg width="28" height="28" viewBox="0 0 28 28" fill="none" xmlns="http://www.w3.org/2000/svg">
<path fill-rule="evenodd" clip-rule="evenodd" d="M25.6667 1.55556H2.33333C2.12705 1.55556 1.92922 1.6375 1.78336 1.78336C1.6375 1.92922 1.55556 2.12705 1.55556 2.33333V25.6667C1.55556 25.8729 1.6375 26.0708 1.78336 26.2166C1.92922 26.3625 2.12705 26.4444 2.33333 26.4444H25.6667C25.8729 26.4444 26.0708 26.3625 26.2166 26.2166C26.3625 26.0708 26.4444 25.8729 26.4444 25.6667V2.33333C26.4444 2.12705 26.3625 1.92922 26.2166 1.78336C26.0708 1.6375 25.8729 1.55556 25.6667 1.55556ZM2.33333 0C1.71449 0 1.121 0.245833 0.683418 0.683418C0.245833 1.121 0 1.71449 0 2.33333V25.6667C0 26.2855 0.245833 26.879 0.683418 27.3166C1.121 27.7542 1.71449 28 2.33333 28H25.6667C26.2855 28 26.879 27.7542 27.3166 27.3166C27.7542 26.879 28 26.2855 28 25.6667V2.33333C28 1.71449 27.7542 1.121 27.3166 0.683418C26.879 0.245833 26.2855 0 25.6667 0H2.33333Z" fill="white"/>
<path fill-rule="evenodd" clip-rule="evenodd" d="M11.2649 8.0303C9.98699 8.25119 9.05599 9.33386 8.90355 10.6219L7.77344 20.2181H20.2179L19.0854 10.6086C18.9345 9.32686 18.0121 8.24652 16.7412 8.02408C14.8357 7.69041 13.2474 7.6873 11.2649 8.0303ZM12.2301 11.3887C12.2505 11.1867 12.1911 10.9846 12.0645 10.8258C11.9379 10.667 11.7543 10.564 11.5527 10.5388C11.3512 10.5136 11.1478 10.5682 10.9861 10.691C10.8243 10.8138 10.7169 10.995 10.687 11.1959L9.9831 16.8254C9.96781 16.928 9.97318 17.0325 9.99889 17.133C10.0246 17.2334 10.0701 17.3277 10.1328 17.4103C10.1955 17.4929 10.2741 17.5622 10.3639 17.6139C10.4537 17.6657 10.553 17.699 10.6559 17.7119C10.7588 17.7248 10.8632 17.7169 10.963 17.6888C11.0628 17.6607 11.156 17.613 11.2371 17.5484C11.3182 17.4837 11.3856 17.4036 11.4352 17.3125C11.4848 17.2215 11.5158 17.1215 11.5262 17.0183L12.2301 11.3887Z" fill="white"/>
<path fill-rule="evenodd" clip-rule="evenodd" d="M12.8131 9.38908C13.157 9.63325 13.4283 9.96608 13.5981 10.3522C13.768 10.7382 13.83 11.1631 13.7776 11.5816L13.0744 17.2112C13.0013 17.7945 12.7198 18.3001 12.3122 18.6625H18.4722L17.5451 10.7906C17.4658 10.114 16.9976 9.6473 16.478 9.5563C15.1783 9.32919 14.0591 9.27086 12.8131 9.38908ZM19.0898 10.6086C18.9389 9.32686 18.0164 8.24652 16.7456 8.02408C14.84 7.69041 13.2518 7.6873 11.2692 8.0303C9.99133 8.25119 9.06033 9.33386 8.90789 10.6219L7.77778 20.2181H20.2222L19.0898 10.6086ZM12.2344 11.3887L11.5306 17.0183C11.5201 17.1215 11.4892 17.2215 11.4395 17.3125C11.3899 17.4036 11.3225 17.4837 11.2415 17.5484C11.1604 17.613 11.0672 17.6607 10.9674 17.6888C10.8676 17.7169 10.7631 17.7248 10.6602 17.7119C10.5574 17.699 10.4581 17.6657 10.3683 17.6139C10.2784 17.5622 10.1999 17.4929 10.1372 17.4103C10.0745 17.3277 10.0289 17.2334 10.0032 17.133C9.97752 17.0325 9.97215 16.928 9.98744 16.8254L10.6913 11.1959C10.7018 11.0927 10.7327 10.9927 10.7823 10.9016C10.832 10.8106 10.8993 10.7304 10.9804 10.6658C11.0615 10.6012 11.1547 10.5534 11.2545 10.5253C11.3543 10.4972 11.4588 10.4894 11.5616 10.5023C11.6645 10.5151 11.7638 10.5484 11.8536 10.6002C11.9435 10.652 12.022 10.7212 12.0847 10.8038C12.1474 10.8864 12.1929 10.9807 12.2187 11.0812C12.2444 11.1816 12.2497 11.2862 12.2344 11.3887ZM21 23.3292H7V21.7736H21V23.3292Z" fill="white"/>
<path d="M5.44271 13.9983C5.44271 14.2604 5.45437 14.5194 5.47771 14.776H3.10938V13.2205H5.47771C5.45437 13.4772 5.44271 13.7362 5.44271 13.9983ZM7.0076 9.06404C6.70763 9.48845 6.44703 9.93936 6.22904 10.4112L4.1796 9.22737L4.95738 7.88026L7.0076 9.06404ZM10.4112 6.22826C9.93671 6.44838 9.48637 6.70971 9.06404 7.0076L7.88026 4.95738L9.22737 4.1796L10.4112 6.22826ZM13.9983 5.44271C13.7362 5.44271 13.4772 5.45438 13.2205 5.47771V3.10938H14.776V5.47771C14.5174 5.45442 14.2579 5.44275 13.9983 5.44271ZM18.9325 7.0076C18.5081 6.70766 18.0571 6.44706 17.5854 6.22904L18.7692 4.1796L20.1163 4.95738L18.9325 7.0076ZM21.7683 10.4112C21.55 9.93933 21.2892 9.48842 20.9889 9.06404L23.0392 7.88026L23.8169 9.22737L21.7683 10.4112ZM22.5538 13.9983C22.5538 13.7362 22.5422 13.4772 22.5188 13.2205H24.8872V14.776H22.5188C22.5422 14.5194 22.5538 14.2604 22.5538 13.9983Z" fill="white"/>
</svg>
