<svg width="57" height="57" viewBox="0 0 57 57" fill="none" xmlns="http://www.w3.org/2000/svg">
<circle cx="28.5" cy="28.5" r="28.5" fill="#489CDA"/>
<path d="M21.5 24.5V30.5M26 24.5V30.5M20 20H36.5C37.2956 20 38.0587 20.3161 38.6213 20.8787C39.1839 21.4413 39.5 22.2044 39.5 23V23.75C39.5 23.9489 39.579 24.1397 39.7197 24.2803C39.8603 24.421 40.0511 24.5 40.25 24.5C40.4489 24.5 40.6397 24.579 40.7803 24.7197C40.921 24.8603 41 25.0511 41 25.25V29.75C41 29.9489 40.921 30.1397 40.7803 30.2803C40.6397 30.421 40.4489 30.5 40.25 30.5C40.0511 30.5 39.8603 30.579 39.7197 30.7197C39.579 30.8603 39.5 31.0511 39.5 31.25V32C39.5 32.7956 39.1839 33.5587 38.6213 34.1213C38.0587 34.6839 37.2956 35 36.5 35H20C19.2044 35 18.4413 34.6839 17.8787 34.1213C17.3161 33.5587 17 32.7956 17 32V23C17 22.2044 17.3161 21.4413 17.8787 20.8787C18.4413 20.3161 19.2044 20 20 20Z" stroke="white" stroke-width="2" stroke-linecap="round" stroke-linejoin="round"/>
</svg>
