<svg width="28" height="28" viewBox="0 0 28 28" fill="none" xmlns="http://www.w3.org/2000/svg">
<path d="M9.66667 27H18.3333M9.66667 27V19.7778M9.66667 27H1.86667C1.63681 27 1.41637 26.9087 1.25384 26.7462C1.09131 26.5836 1 26.3632 1 26.1333V20.6444C1 20.4146 1.09131 20.1941 1.25384 20.0316C1.41637 19.8691 1.63681 19.7778 1.86667 19.7778H9.66667M18.3333 27V9.66667M18.3333 27H26.1333C26.3632 27 26.5836 26.9087 26.7462 26.7462C26.9087 26.5836 27 26.3632 27 26.1333V1.86667C27 1.63681 26.9087 1.41637 26.7462 1.25384C26.5836 1.09131 26.3632 1 26.1333 1H19.2C18.9701 1 18.7497 1.09131 18.5872 1.25384C18.4246 1.41637 18.3333 1.63681 18.3333 1.86667V9.66667M9.66667 19.7778V10.5333C9.66667 10.3035 9.75798 10.083 9.92051 9.92051C10.083 9.75798 10.3035 9.66667 10.5333 9.66667H18.3333" stroke="white" stroke-width="1.5"/>
</svg>
