<svg width="57" height="57" viewBox="0 0 57 57" fill="none" xmlns="http://www.w3.org/2000/svg">
<circle cx="28.5" cy="28.5" r="28.5" fill="#71B6B2"/>
<path d="M38.0535 22.3946L36.5751 24.5967C37.288 26.0049 37.6371 27.5663 37.5909 29.141C37.5448 30.7157 37.1049 32.2544 36.3106 33.6193H19.6515C18.6192 31.8459 18.1915 29.7902 18.4317 27.7571C18.6719 25.7239 19.5672 23.8216 20.985 22.332C22.4028 20.8424 24.2676 19.845 26.3028 19.4875C28.3381 19.1299 30.4355 19.4314 32.2841 20.3472L34.5077 18.8831C32.2438 17.4455 29.5584 16.8013 26.8811 17.0535C24.2038 17.3058 21.6893 18.44 19.7398 20.2746C17.7903 22.1093 16.5184 24.5384 16.1276 27.1735C15.7368 29.8086 16.2496 32.4973 17.5841 34.8097C17.7939 35.1695 18.0951 35.4686 18.4577 35.6775C18.8204 35.8863 19.232 35.9975 19.6515 36H36.2986C36.7222 36.0016 37.1387 35.8924 37.506 35.6834C37.8733 35.4744 38.1782 35.173 38.39 34.8097C39.4975 32.9098 40.0532 30.7438 39.996 28.5509C39.9387 26.3579 39.2706 24.2233 38.0655 22.3827L38.0535 22.3946Z" fill="white"/>
<path d="M26.6463 30.2891C26.8509 30.5145 27.0939 30.6933 27.3614 30.8152C27.6289 30.9372 27.9156 31 28.2052 31C28.4948 31 28.7815 30.9372 29.049 30.8152C29.3165 30.6933 29.5595 30.5145 29.7642 30.2891L36 20L26.6463 26.8594C26.4414 27.0845 26.2789 27.3518 26.168 27.6461C26.0571 27.9403 26 28.2557 26 28.5743C26 28.8928 26.0571 29.2082 26.168 29.5024C26.2789 29.7967 26.4414 30.064 26.6463 30.2891Z" fill="white"/>
</svg>
